# xmcd CD database file
#
# Track frame offsets:
#	150
#	17238
#	37892
#	52646
#	84647
#	108787
#	138192
#	163232
#	192227
#	216743
#
# Disc length: 3088 seconds
#
# Revision: 0
# Processed by: cddbd v1.5.2PL0 Copyright (c) Steve Scherf et al.
# Submitted via: CDex 1.70beta2
#
DISCID=810c0e0a
DTITLE=Big Brazos - Je L'Emporterai Au Paradis
DYEAR=2006
DGENRE=Blues
TTITLE0=Canossa
TTITLE1=Abdré Et Son Tracteur
TTITLE2=Ca Fait Un Bail
TTITLE3=12.7
TTITLE4=Je T#Aui Dans La Peau, Baby
TTITLE5=La Ballade De Raymond Carver
TTITLE6=Démons De Midi
TTITLE7=Douces Disparitions
TTITLE8=Morsalines
TTITLE9=Tariquet Boogie
EXTD=
EXTT0=
EXTT1=
EXTT2=
EXTT3=
EXTT4=
EXTT5=
EXTT6=
EXTT7=
EXTT8=
EXTT9=
PLAYORDER=
